<svg version="1.0" xmlns="http://www.w3.org/2000/svg"
 width="1024.000000pt" height="1024.000000pt" viewBox="0 0 1024.000000 1024.000000"
 >

<g transform="translate(0.000000,1024.000000) scale(0.100000,-0.100000)">
<path d="M0 5120 l0 -5120 5120 0 5120 0 0 5120 0 5120 -5120 0 -5120 0 0
-5120z m3766 3059 c310 -43 598 -218 795 -482 72 -96 123 -189 234 -427 200
-427 205 -437 297 -525 93 -90 297 -280 498 -465 74 -69 160 -148 190 -176 30
-28 179 -165 330 -304 510 -469 874 -806 1275 -1180 184 -173 928 -876 1125
-1065 215 -206 430 -419 426 -422 -5 -6 -181 72 -671 300 -575 266 -926 446
-1181 606 l-51 32 -154 -10 c-434 -28 -972 13 -1434 110 -579 121 -1115 410
-1412 760 -92 108 -210 285 -269 403 l-46 91 7 -60 c10 -88 77 -284 140 -410
296 -593 1033 -995 2040 -1115 99 -11 196 -23 215 -26 19 -3 208 -8 420 -11
l385 -6 235 -116 c222 -111 361 -191 391 -228 12 -14 11 -15 -6 -10 -25 8
-516 100 -653 122 -182 30 -263 15 -536 -102 -144 -61 -291 -111 -408 -139
l-77 -17 -68 -95 c-37 -51 -115 -157 -173 -235 -180 -242 -370 -505 -370 -511
0 -3 24 -6 53 -6 124 0 245 -63 298 -154 16 -28 29 -60 29 -71 0 -20 -6 -20
-1147 -18 l-1148 3 -17 21 c-47 57 16 185 102 209 19 5 143 10 275 11 l240 0
235 276 c129 152 297 348 373 435 81 93 132 160 125 162 -7 2 -62 14 -123 26
-297 59 -589 157 -820 277 -182 94 -514 389 -700 623 -317 396 -509 931 -514
1431 -3 229 25 427 104 739 59 230 47 314 -58 423 -72 74 -62 70 -752 294
l-150 49 335 166 c184 91 369 182 410 202 63 31 81 46 115 93 62 89 242 265
329 323 212 141 434 207 703 209 72 1 166 -4 209 -10z"/>
<path d="M3205 7581 c-142 -64 -169 -270 -49 -369 74 -61 173 -65 258 -12 62
40 90 95 91 181 0 56 -5 73 -30 115 -55 90 -176 128 -270 85z"/>
<path d="M4765 3033 c-115 -135 -246 -287 -290 -337 -144 -166 -180 -209 -188
-222 -7 -12 46 -14 325 -14 l333 1 125 172 c106 147 423 577 452 614 8 10 -28
13 -168 12 -99 0 -222 5 -274 10 -52 6 -97 11 -100 11 -3 -1 -99 -111 -215
-247z"/>
</g>
</svg>
